<svg width="118" height="38" viewBox="0 0 118 38" fill="none" xmlns="http://www.w3.org/2000/svg">
<path d="M35.144 36.9999H27.416L26.84 23.9919C26.68 20.8879 26.6 18.1199 26.6 15.6879C26.6 13.8319 26.648 12.0719 26.744 10.4079L21.608 33.4959H14.168L8.69598 10.4079C8.88798 13.1919 8.98398 15.8159 8.98398 18.2799C8.98398 20.1359 8.93598 22.0719 8.83998 24.0879L8.26398 36.9999H0.583984L3.07998 3.73593H13.016L18.008 26.2959L22.664 3.73593H32.648L35.144 36.9999Z" fill="#0D0909"/>
<path d="M61.9344 23.7519C61.9344 24.8079 61.8864 25.7199 61.7904 26.4879H45.9984C46.2544 28.6319 46.8624 30.1359 47.8224 30.9999C48.7824 31.8639 50.1104 32.2959 51.8064 32.2959C52.8304 32.2959 53.8224 32.1199 54.7824 31.7679C55.7424 31.3839 56.7824 30.8079 57.9024 30.0399L61.0224 34.2639C58.0464 36.6319 54.7344 37.8159 51.0864 37.8159C46.9584 37.8159 43.7904 36.5999 41.5824 34.1679C39.3744 31.7359 38.2704 28.4719 38.2704 24.3759C38.2704 21.7839 38.7344 19.4639 39.6624 17.4159C40.5904 15.3359 41.9504 13.7039 43.7424 12.5199C45.5344 11.3039 47.6784 10.6959 50.1744 10.6959C53.8544 10.6959 56.7344 11.8479 58.8144 14.1519C60.8944 16.4559 61.9344 19.6559 61.9344 23.7519ZM54.4944 21.5919C54.4304 17.6879 53.0544 15.7359 50.3664 15.7359C49.0544 15.7359 48.0304 16.2159 47.2944 17.1759C46.5904 18.1359 46.1584 19.7199 45.9984 21.9279H54.4944V21.5919Z" fill="#0D0909"/>
<path d="M72.9627 37.8159C70.7547 37.8159 69.0267 37.1919 67.7787 35.9439C66.5627 34.6639 65.9547 32.8559 65.9547 30.5199V1.38393L73.5387 0.567932V30.2319C73.5387 31.2879 73.9707 31.8159 74.8347 31.8159C75.2827 31.8159 75.6987 31.7359 76.0827 31.5759L77.5707 36.9519C76.1947 37.5279 74.6587 37.8159 72.9627 37.8159Z" fill="#0D0909"/>
<path d="M87.2127 37.8159C85.0047 37.8159 83.2767 37.1919 82.0287 35.9439C80.8127 34.6639 80.2047 32.8559 80.2047 30.5199V1.38393L87.7887 0.567932V30.2319C87.7887 31.2879 88.2207 31.8159 89.0847 31.8159C89.5327 31.8159 89.9487 31.7359 90.3327 31.5759L91.8207 36.9519C90.4447 37.5279 88.9087 37.8159 87.2127 37.8159Z" fill="#0D0909"/>
<path d="M105.5 10.6959C109.404 10.6959 112.46 11.8959 114.668 14.2959C116.876 16.6639 117.98 19.9919 117.98 24.2799C117.98 26.9999 117.468 29.3839 116.444 31.4319C115.452 33.4479 114.012 35.0159 112.124 36.1359C110.268 37.2559 108.06 37.8159 105.5 37.8159C101.628 37.8159 98.5724 36.6319 96.3324 34.2639C94.1244 31.8639 93.0204 28.5199 93.0204 24.2319C93.0204 21.5119 93.5164 19.1439 94.5084 17.1279C95.5324 15.0799 96.9724 13.4959 98.8284 12.3759C100.716 11.2559 102.94 10.6959 105.5 10.6959ZM105.5 16.2639C103.964 16.2639 102.812 16.9199 102.044 18.2319C101.276 19.5119 100.892 21.5119 100.892 24.2319C100.892 27.0159 101.26 29.0479 101.996 30.3279C102.764 31.6079 103.932 32.2479 105.5 32.2479C107.036 32.2479 108.188 31.6079 108.956 30.3279C109.724 29.0159 110.108 26.9999 110.108 24.2799C110.108 21.4959 109.724 19.4639 108.956 18.1839C108.22 16.9039 107.068 16.2639 105.5 16.2639Z" fill="#0D0909"/>
</svg>
