<svg width="24" height="24" viewBox="0 0 24 24" fill="none" xmlns="http://www.w3.org/2000/svg">
<path d="M12 5.83008V16.066L15.9675 18.5787L14.9061 13.8707L18.3935 10.6968L13.7942 10.2736L12 5.83008ZM12 17.9174L7.29964 20.8798C7.16486 20.9679 7.02166 21.0076 6.87004 20.9988C6.71841 20.99 6.58363 20.9415 6.4657 20.8533C6.34777 20.7652 6.25933 20.6505 6.20036 20.5095C6.1414 20.3684 6.12876 20.2097 6.16245 20.0334L7.40072 14.4261L3.25632 10.6439C3.12154 10.5204 3.04152 10.3838 3.01625 10.2339C2.99097 10.084 2.99519 9.93855 3.02888 9.79749C3.06258 9.65643 3.13839 9.5374 3.25632 9.44042C3.37425 9.34344 3.51745 9.28613 3.68592 9.2685L9.16967 8.76596L11.2924 3.47609C11.3598 3.31739 11.4609 3.19837 11.5957 3.11902C11.7304 3.03967 11.8652 3 12 3C12.1348 3 12.2696 3.03967 12.4043 3.11902C12.5391 3.19837 12.6402 3.31739 12.7076 3.47609L14.8303 8.76596L20.3141 9.2685C20.4826 9.28613 20.6258 9.34344 20.7437 9.44042C20.8616 9.5374 20.9374 9.65643 20.9711 9.79749C21.0048 9.93855 21.009 10.084 20.9838 10.2339C20.9585 10.3838 20.8785 10.5204 20.7437 10.6439L16.5993 14.4261L17.8375 20.0334C17.8712 20.2097 17.8586 20.3684 17.7996 20.5095C17.7407 20.6505 17.6522 20.7652 17.5343 20.8533C17.4164 20.9415 17.2816 20.99 17.13 20.9988C16.9783 21.0076 16.8351 20.9679 16.7004 20.8798L12 17.9174Z" fill="#6D61F2"/>
</svg>
