<svg width="24" height="24" viewBox="0 0 24 24" fill="none" xmlns="http://www.w3.org/2000/svg">
<path d="M13.1932 21C12.8749 21 12.643 20.8875 12.4977 20.6625C12.3524 20.4375 12.3351 20.16 12.4458 19.83L15.4975 11.055C15.5806 10.815 15.7328 10.6125 15.9543 10.4475C16.1757 10.2825 16.4041 10.2 16.6394 10.2C16.8746 10.2 17.1065 10.2825 17.3348 10.4475C17.5632 10.6125 17.7189 10.815 17.8019 11.055L20.9159 19.74C21.0405 20.085 21.0266 20.3812 20.8744 20.6287C20.7222 20.8762 20.4661 21 20.1063 21C19.954 21 19.8087 20.9475 19.6703 20.8425C19.5319 20.7375 19.435 20.6025 19.3797 20.4375L18.6946 18.165H14.7087L13.9198 20.46C13.8644 20.61 13.7675 20.7375 13.6291 20.8425C13.4907 20.9475 13.3454 21 13.1932 21V21ZM15.1654 16.59H18.1133L16.6601 12.225H16.6186L15.1654 16.59ZM8.16925 8.895C8.37685 9.285 8.60521 9.66375 8.85433 10.0312C9.10345 10.3987 9.37333 10.7775 9.66397 11.1675C10.2868 10.4625 10.8058 9.73125 11.221 8.97375C11.6362 8.21625 11.9891 7.425 12.2797 6.6H3.8304C3.59512 6.6 3.3979 6.51375 3.23874 6.34125C3.07958 6.16875 3 5.955 3 5.7C3 5.445 3.07958 5.23125 3.23874 5.05875C3.3979 4.88625 3.59512 4.8 3.8304 4.8H8.81281V3.9C8.81281 3.645 8.89239 3.43125 9.05155 3.25875C9.21071 3.08625 9.40793 3 9.64322 3C9.8785 3 10.0757 3.08625 10.2349 3.25875C10.394 3.43125 10.4736 3.645 10.4736 3.9V4.8H15.456C15.6913 4.8 15.8885 4.88625 16.0477 5.05875C16.2068 5.23125 16.2864 5.445 16.2864 5.7C16.2864 5.955 16.2068 6.16875 16.0477 6.34125C15.8885 6.51375 15.6913 6.6 15.456 6.6H13.9405C13.6361 7.635 13.2312 8.65125 12.7261 9.64875C12.2209 10.6462 11.6016 11.595 10.8681 12.495L12.9025 14.7225L12.2797 16.545L9.64322 13.8L6.05173 17.6925C5.89949 17.8575 5.71265 17.94 5.49121 17.94C5.26977 17.94 5.08292 17.85 4.93068 17.67C4.7646 17.505 4.68156 17.3025 4.68156 17.0625C4.68156 16.8225 4.7646 16.6125 4.93068 16.4325L8.58445 12.4725C8.22461 12.0075 7.88553 11.5387 7.56721 11.0662C7.24889 10.5937 6.95825 10.11 6.69529 9.615C6.52921 9.285 6.51537 9 6.65377 8.76C6.79217 8.52 7.04129 8.4 7.40113 8.4C7.55337 8.4 7.70215 8.44875 7.84747 8.54625C7.99279 8.64375 8.10005 8.76 8.16925 8.895V8.895Z" fill="#6D61F2"/>
</svg>
